<svg width="50" height="50" viewBox="0 0 50 50" fill="none" xmlns="http://www.w3.org/2000/svg">
<circle cx="25" cy="25" r="24.5" transform="rotate(180 25 25)" fill="white" stroke="#4361EE"/>
<path d="M35 26C35.5523 26 36 25.5523 36 25C36 24.4477 35.5523 24 35 24L35 26ZM14.2929 24.2929C13.9024 24.6834 13.9024 25.3166 14.2929 25.7071L20.6569 32.0711C21.0474 32.4616 21.6805 32.4616 22.0711 32.0711C22.4616 31.6805 22.4616 31.0474 22.0711 30.6569L16.4142 25L22.0711 19.3431C22.4616 18.9526 22.4616 18.3195 22.0711 17.9289C21.6805 17.5384 21.0474 17.5384 20.6569 17.9289L14.2929 24.2929ZM35 24L15 24L15 26L35 26L35 24Z" fill="#4361EE"/>
</svg>
