<svg width="48" height="35" viewBox="0 0 48 35" fill="none" xmlns="http://www.w3.org/2000/svg">
<path d="M40 7.2H19.2V19.2619H16.9846V15.1619C16.982 12.8389 16.0581 10.6118 14.4155 8.96921C12.773 7.3266 10.5459 6.40262 8.2229 6.4H3.2V0H0V34.4H3.2V29.6257L44.8 29.9585V34.4H48V15.2C47.9976 13.079 47.154 11.0456 45.6542 9.54581C44.1544 8.04604 42.121 7.20241 40 7.2ZM3.2 9.6H8.2229C9.69744 9.60167 11.1111 10.1882 12.1538 11.2308C13.1964 12.2735 13.7829 13.6872 13.7846 15.1617V19.2617H3.2V9.6ZM44.8 26.7584L3.2 26.4256V22.4619H44.8V26.7584ZM44.8 19.2619H22.4V10.4H40C41.2726 10.4015 42.4926 10.9076 43.3925 11.8075C44.2924 12.7074 44.7985 13.9274 44.8 15.2V19.2619Z" fill="white"/>
</svg>
