<svg width="14" height="23" viewBox="0 0 14 23" fill="none" xmlns="http://www.w3.org/2000/svg">
<path d="M9.03064 9.83836H9.03008H4.96992C4.48037 9.83836 4.01087 9.64389 3.6647 9.29772C3.31854 8.95156 3.12406 8.48206 3.12406 7.99251C3.12406 7.50295 3.31854 7.03345 3.6647 6.68729C4.01087 6.34112 4.48037 6.14665 4.96992 6.14665H11.4662H11.9662V5.64665V4.02258V3.52258H11.4662H8.51504V1V0.5H8.01504H6.39098H5.89098V1V3.52258H4.96992C3.78442 3.52258 2.64748 3.99352 1.80921 4.83179C0.970936 5.67007 0.5 6.80701 0.5 7.99251C0.5 9.178 0.970937 10.3149 1.80921 11.1532C2.64748 11.9915 3.78442 12.4624 4.96992 12.4624H9.02952C9.51905 12.463 9.98838 12.6577 10.3345 13.0038C10.6807 13.35 10.8754 13.8193 10.8759 14.3088V14.4882C10.8754 14.9777 10.6807 15.4471 10.3345 15.7932C9.98838 16.1394 9.51905 16.3341 9.02952 16.3346H2.15791H1.65791V16.8346V18.4587V18.9587H2.15791H5.89098V21.3008V21.8008H6.39098H8.01504H8.51504V21.3008V18.9587H9.03008H9.03064C10.2156 18.9573 11.3516 18.486 12.1895 17.6482C13.0274 16.8103 13.4987 15.6743 13.5 14.4893V14.4888V14.3083V14.3077C13.4987 13.1228 13.0274 11.9868 12.1895 11.1489C11.3516 10.311 10.2156 9.8397 9.03064 9.83836Z" fill="#00CE3A" stroke="#00CE3A"/>
</svg>
