<svg width="20" height="23" viewBox="0 0 20 23" fill="none" xmlns="http://www.w3.org/2000/svg">
<path d="M12.4076 11.2528C12.6672 10.8265 12.9355 10.3857 13.2006 9.93118C14.0877 8.41044 14.2505 6.87814 13.6846 5.37676C12.5427 2.34747 8.72575 0.501751 7.84209 0.207261L7.22073 0L6.25093 1.93998L6.71893 2.32231C6.72417 2.32651 7.244 2.78073 7.27865 3.4693C7.30824 4.0571 6.986 4.69229 6.32112 5.35736C5.8594 5.81904 5.35264 6.26547 4.8161 6.73805C2.55865 8.72608 0 10.98 0 15.2439C0 15.3024 0.000550676 15.3607 0.00165204 15.4185C0.0180119 16.3595 0.2201 17.2879 0.596308 18.1505C0.972516 19.0131 1.51543 19.7928 2.19387 20.445C3.55621 21.7701 5.38285 22.5097 7.28332 22.5056H11.6306L11.0939 21.4166C8.91356 16.9914 10.4555 14.459 12.4076 11.2528Z" fill="#FF1111"/>
<path d="M19.8229 15.1955C19.8103 15.1456 19.7972 15.0955 19.7835 15.0451C19.2385 13.047 16.2218 10.4778 15.8797 10.1915L15.1925 9.61646L14.742 10.3909C13.7152 12.1563 12.834 13.7664 12.4499 15.5931C12.0119 17.6763 12.3067 19.7935 13.3515 22.0658L13.5535 22.5056H14.067C14.9713 22.5082 15.8642 22.3032 16.6769 21.9063C17.4895 21.5094 18.2001 20.9312 18.7541 20.2163C19.3046 19.5171 19.6873 18.7007 19.8726 17.8302C20.0579 16.9598 20.0409 16.0583 19.8229 15.1955Z" fill="#FF1111"/>
</svg>
