<svg width="42" height="44" viewBox="0 0 42 44" fill="none" xmlns="http://www.w3.org/2000/svg">
<path d="M40.0773 18.1142L22.3463 1.80166C21.7698 1.27135 21.0108 0.984352 20.2277 1.00066C19.4446 1.01697 18.6981 1.33531 18.1443 1.88916L1.83688 18.1967L1 19.0334V43.0741H16.7143V28.0741H25.2857V43.0741H41V18.9632L40.0773 18.1142ZM20.2891 3.85719C20.3143 3.85719 20.2987 3.86264 20.2879 3.87327C20.2768 3.86264 20.2639 3.85719 20.2891 3.85719ZM38.1429 40.2169H28.1429V28.0741C28.1429 27.3163 27.8418 26.5896 27.306 26.0538C26.7702 25.5179 26.0435 25.2169 25.2857 25.2169H16.7143C15.9565 25.2169 15.2298 25.5179 14.694 26.0538C14.1582 26.5896 13.8571 27.3163 13.8571 28.0741V40.2169H3.85714L3.85714 20.2169L20.2891 3.90943L20.2913 3.9063L38.1429 20.2169V40.2169Z" fill="white" stroke="white" stroke-width="0.6"/>
</svg>
