<svg width="44" height="48" viewBox="0 0 44 48" fill="none" xmlns="http://www.w3.org/2000/svg">
<path d="M42 16.4958V31.5535C42 34.0191 40.6791 36.3086 38.5437 37.5634L25.4672 45.1143C23.3318 46.3471 20.6901 46.3471 18.5327 45.1143L5.45625 37.5634C3.32086 36.3306 2 34.0411 2 31.5535V16.4958C2 14.0302 3.32086 11.7406 5.45625 10.4858L18.5327 2.93486C20.6681 1.70205 23.3098 1.70205 25.4672 2.93486L38.5437 10.4858C40.6791 11.7406 42 14.0081 42 16.4958Z" stroke="#4361EE" stroke-width="3" stroke-linecap="round" stroke-linejoin="round"/>
<path d="M22.011 21.8234C24.844 21.8234 27.1403 19.5268 27.1403 16.6939C27.1403 13.8611 24.844 11.5647 22.011 11.5647C19.1782 11.5647 16.8817 13.8611 16.8817 16.6939C16.8817 19.5268 19.1782 21.8234 22.011 21.8234Z" stroke="#4361EE" stroke-width="3" stroke-linecap="round" stroke-linejoin="round"/>
<path d="M30.8167 34.2836C30.8167 30.321 26.8761 27.1069 22.0109 27.1069C17.1458 27.1069 13.2052 30.321 13.2052 34.2836" stroke="#4361EE" stroke-width="3" stroke-linecap="round" stroke-linejoin="round"/>
</svg>
